@startuml "Django Class Diagram for CVE-2018-6188"
class AuthenticationForm {
  +username: CharField
  +password: CharField
  +confirm_login_allowed(user: User): void
}

class User {
  +username: String
  +password: String
  +is_active: Boolean
}

AuthenticationForm --> User : validate
AuthenticationForm ..> User : <<use>> confirm_login_allowed
